HIERARCHY
ROOT Hips
{
 OFFSET 0.000000 0.000000 0.000000
 CHANNELS 6 Xposition Yposition Zposition Yrotation Xrotation Zrotation
 JOINT Chest
 {
  OFFSET 0.000000 10.354800 0.006500
  CHANNELS 3 Yrotation Xrotation Zrotation
  JOINT Chest2
  {
   OFFSET 0.000000 10.435800 -0.013200
   CHANNELS 3 Yrotation Xrotation Zrotation
   JOINT Chest3
   {
    OFFSET 0.000000 10.393700 0.000000
    CHANNELS 3 Yrotation Xrotation Zrotation
    JOINT Chest4
    {
     OFFSET 0.000000 10.383100 0.000000
     CHANNELS 3 Yrotation Xrotation Zrotation
     JOINT Neck
     {
      OFFSET 0.000000 15.694000 0.000000
      CHANNELS 3 Yrotation Xrotation Zrotation
      JOINT Head
      {
       OFFSET 0.000000 9.711000 -0.028000
       CHANNELS 3 Yrotation Xrotation Zrotation
       End Site
       {
        OFFSET 0.000000 18.578700 -0.014800
       }
      }
     }
     JOINT RightCollar
     {
      OFFSET -3.157200 10.367500 0.000000
      CHANNELS 3 Yrotation Xrotation Zrotation
      JOINT RightShoulder
      {
       OFFSET -14.482500 0.000000 0.000000
       CHANNELS 3 Yrotation Xrotation Zrotation
       JOINT RightElbow
       {
        OFFSET 0.000000 -31.707800 0.000000
        CHANNELS 3 Yrotation Xrotation Zrotation
        JOINT RightWrist
        {
         OFFSET 0.000000 -25.659300 0.000000
         CHANNELS 3 Yrotation Xrotation Zrotation
         End Site
         {
          OFFSET 0.000000 -18.994300 0.000000
         }
        }
       }
      }
     }
     JOINT LeftCollar
     {
      OFFSET 3.157200 10.367500 0.000000
      CHANNELS 3 Yrotation Xrotation Zrotation
      JOINT LeftShoulder
      {
       OFFSET 14.482500 0.000000 0.000000
       CHANNELS 3 Yrotation Xrotation Zrotation
       JOINT LeftElbow
       {
        OFFSET 0.000000 -31.707800 0.000000
        CHANNELS 3 Yrotation Xrotation Zrotation
        JOINT LeftWrist
        {
         OFFSET 0.000000 -25.659300 0.000000
         CHANNELS 3 Yrotation Xrotation Zrotation
         End Site
         {
          OFFSET 0.000000 -18.994300 0.000000
         }
        }
       }
      }
     }
    }
   }
  }
 }
 JOINT RightHip
 {
  OFFSET -8.365600 -0.032100 -0.003200
  CHANNELS 3 Yrotation Xrotation Zrotation
  JOINT RightKnee
  {
   OFFSET 0.000000 -43.980000 0.003100
   CHANNELS 3 Yrotation Xrotation Zrotation
   JOINT RightAnkle
   {
    OFFSET 0.000000 -42.882800 0.005200
    CHANNELS 3 Yrotation Xrotation Zrotation
    JOINT RightToe
    {
     OFFSET 0.000000 -4.915500 10.826300
     CHANNELS 3 Yrotation Xrotation Zrotation
     End Site
     {
      OFFSET 0.000000 -1.517500 6.175900
     }
    }
   }
  }
 }
 JOINT LeftHip
 {
  OFFSET 8.365600 -0.032100 -0.003200
  CHANNELS 3 Yrotation Xrotation Zrotation
  JOINT LeftKnee
  {
   OFFSET 0.000000 -43.980000 0.003100
   CHANNELS 3 Yrotation Xrotation Zrotation
   JOINT LeftAnkle
   {
    OFFSET 0.000000 -42.882800 0.005200
    CHANNELS 3 Yrotation Xrotation Zrotation
    JOINT LeftToe
    {
     OFFSET 0.000000 -4.915500 10.826300
     CHANNELS 3 Yrotation Xrotation Zrotation
     End Site
     {
      OFFSET 0.000000 -1.517500 6.175900
     }
    }
   }
  }
 }
}
MOTION
Frames: 12
Frame Time: 0.008333
90.083717 126.585430 120.452404 177.474520 -21.215694 -3.334786 -1.325450 12.534762 3.134263 -0.125913 0.981309 0.256231 -0.208739 1.666327 0.436779 -1.222565 11.365075 2.848966 -2.697528 21.237817 -3.459083 -2.097387 -3.040856 -3.112641 1.334779 5.401218 -4.774219 4.506740 -2.458784 -4.516550 -85.531483 -51.251936 123.325551 -24.511359 -16.473402 -35.005490 -0.012564 7.714320 -0.096448 8.499688 3.492722 -2.908935 90.002243 -54.224366 -137.752737 25.600786 -2.235625 41.844138 7.666201 -60.838358 0.798489 -109.760605 79.648098 -103.800686 4.109137 -13.759838 -15.262271 0.003238 -0.010756 0.001470 -20.866826 -60.343540 14.722104 67.172236 80.598397 62.720591 -6.494267 -5.315633 -1.564243 0.004218 0.001538 0.001915
90.083143 126.584567 120.450278 177.474368 -21.207344 -3.334970 -1.332612 12.533931 3.131829 -0.120924 0.976940 0.256751 -0.216375 1.674023 0.434532 -1.247963 11.371548 2.852764 -2.670428 21.226609 -3.472259 -2.085207 -3.042288 -3.125901 1.376008 5.382313 -4.778680 4.532801 -2.524895 -4.547495 -85.562202 -51.250026 123.318032 -24.515411 -16.472578 -35.030612 0.011554 7.694411 -0.107460 8.463867 3.443887 -2.925007 89.987757 -54.233894 -137.684322 25.602798 -2.236244 41.845278 7.661998 -60.844420 0.784460 -109.738853 79.633044 -103.774830 4.118636 -13.757604 -15.241182 0.000802 -0.010485 0.000364 -20.890303 -60.353201 14.736934 67.250365 80.603474 62.799714 -6.495226 -5.323974 -1.565371 0.002547 -0.000809 0.001157
90.082671 126.583693 120.448489 177.474334 -21.199922 -3.335371 -1.335395 12.528805 3.131660 -0.129338 0.983526 0.256263 -0.217406 1.674192 0.434868 -1.250421 11.371157 2.854534 -2.664376 21.224419 -3.482501 -2.075169 -3.044205 -3.139033 1.402381 5.368021 -4.776903 4.547843 -2.591467 -4.574521 -85.519296 -51.231387 123.232911 -24.494701 -16.486664 -35.028169 0.011990 7.679236 -0.116039 8.464645 3.436629 -2.926238 89.985715 -54.231969 -137.675746 25.602989 -2.238165 41.844571 7.658722 -60.849458 0.773190 -109.670694 79.606281 -103.705850 4.140023 -13.735147 -15.233560 -0.000196 -0.009566 -0.000089 -20.907392 -60.361208 14.748779 67.295331 80.609867 62.846073 -6.500423 -5.332793 -1.564190 0.000634 -0.002811 0.000288
90.083211 126.582223 120.448723 177.473587 -21.183043 -3.340239 -1.342407 12.523279 3.132112 -0.138027 0.991050 0.255641 -0.216233 1.671966 0.435760 -1.244858 11.362626 2.858229 -2.660868 21.224021 -3.491557 -2.067593 -3.046567 -3.149809 1.421796 5.354856 -4.770634 4.571210 -2.650746 -4.593216 -85.557510 -51.225173 123.241743 -24.490109 -16.500039 -35.048493 0.008914 7.665098 -0.123482 8.466421 3.430044 -2.926697 89.997873 -54.220518 -137.708986 25.603042 -2.244985 41.851408 7.644796 -60.862153 0.770146 -109.570515 79.582256 -103.607828 4.175592 -13.713570 -15.231437 -0.002019 -0.009635 -0.000916 -20.938383 -60.374460 14.777863 67.319838 80.611179 62.867954 -6.500298 -5.345355 -1.558512 -0.001537 -0.003876 -0.000698
90.083910 126.581030 120.448508 177.463134 -21.170662 -3.340301 -1.340519 12.518396 3.132874 -0.135836 0.989490 0.257178 -0.212208 1.667843 0.435615 -1.251142 11.366145 2.858152 -2.657769 21.224036 -3.498096 -2.061333 -3.047000 -3.160820 1.442738 5.337280 -4.753442 4.590618 -2.701597 -4.610720 -85.571526 -51.212563 123.233599 -24.503664 -16.513086 -35.071897 0.004418 7.653334 -0.129356 8.436277 3.385376 -2.935678 90.000998 -54.219135 -137.675664 25.605750 -2.241008 41.846690 7.635575 -60.871323 0.767956 -109.457798 79.564485 -103.499251 4.211527 -13.683002 -15.230485 -0.004646 -0.010556 -0.002109 -20.956268 -60.383540 14.801021 67.360623 80.611577 62.911593 -6.500756 -5.355288 -1.566434 -0.000524 -0.003348 -0.000238
90.084706 126.580005 120.448053 177.454850 -21.160061 -3.339251 -1.340397 12.516122 3.133964 -0.130113 0.983243 0.256830 -0.218830 1.673748 0.435710 -1.245654 11.360133 2.857568 -2.668288 21.231742 -3.512587 -2.046679 -3.051852 -3.166670 1.453586 5.326857 -4.741791 4.633778 -2.813909 -4.603692 -85.513768 -51.204338 123.117162 -24.522209 -16.524028 -35.090718 -0.001496 7.646929 -0.132637 8.418057 3.355021 -2.941069 90.007486 -54.217132 -137.655032 25.607948 -2.238324 41.834156 7.634495 -60.883202 0.767651 -109.332900 79.540253 -103.375762 4.214968 -13.618465 -15.218109 -0.004062 -0.009623 -0.001844 -20.971025 -60.390646 14.819388 67.397637 80.615439 62.947937 -6.497774 -5.368341 -1.569856 -0.001177 -0.001921 -0.000534
90.087318 126.579057 120.447899 177.445851 -21.148241 -3.345820 -1.346569 12.518939 3.142167 -0.125704 0.977305 0.255541 -0.229467 1.680829 0.437156 -1.238224 11.348032 2.853938 -2.660452 21.234166 -3.520486 -2.039426 -3.054127 -3.170122 1.469953 5.322453 -4.740191 4.652046 -2.870639 -4.590596 -85.499225 -51.187535 123.089369 -24.581869 -16.562415 -35.083099 0.010184 7.643400 -0.134835 8.410820 3.343281 -2.942691 90.010416 -54.215440 -137.646608 25.589824 -2.253253 41.798353 7.619273 -60.901284 0.783231 -109.237906 79.523498 -103.282495 4.241788 -13.497440 -15.203531 0.001014 -0.000921 0.000460 -20.995525 -60.396461 14.851690 67.409295 80.620590 62.961648 -6.490951 -5.378984 -1.571488 -0.000862 -0.000148 -0.000391
90.087872 126.577382 120.449353 177.431142 -21.125820 -3.337589 -1.339147 12.501100 3.139758 -0.130422 0.981887 0.256356 -0.225705 1.674929 0.436197 -1.245424 11.349944 2.853569 -2.652282 21.231455 -3.526833 -2.035013 -3.054162 -3.175990 1.489650 5.306263 -4.736770 4.665490 -2.910904 -4.574381 -85.483465 -51.167464 123.059229 -24.608987 -16.589820 -35.096091 0.011914 7.633369 -0.134659 8.411240 3.336580 -2.947876 90.041935 -54.209065 -137.683212 25.583625 -2.259903 41.815910 7.612815 -60.927981 0.780482 -109.196903 79.524593 -103.249432 4.249201 -13.432113 -15.195375 -0.001102 0.003027 -0.000500 -20.995707 -60.418319 14.863786 67.413255 80.624490 62.966557 -6.474796 -5.383672 -1.572386 0.001313 0.000965 0.000596
90.088832 126.576596 120.448630 177.430863 -21.114907 -3.335226 -1.351413 12.497762 3.137626 -0.130775 0.981789 0.256240 -0.220074 1.671291 0.434821 -1.255505 11.352389 2.852288 -2.640947 21.229003 -3.533163 -2.019291 -3.046328 -3.204913 1.511914 5.297883 -4.733493 4.674176 -2.941366 -4.562279 -85.479322 -51.139448 123.040300 -24.611862 -16.605019 -35.115202 0.000468 7.626174 -0.135374 8.413889 3.315743 -2.955677 90.065356 -54.209367 -137.690243 25.576864 -2.270419 41.826098 7.613546 -60.939978 0.775173 -109.184157 79.522914 -103.236280 4.242232 -13.381387 -15.183419 0.000391 0.007964 0.000177 -21.005667 -60.428124 14.870366 67.423547 80.623300 62.974747 -6.475751 -5.390365 -1.571049 -0.000255 0.000902 -0.000116
90.089851 126.575671 120.448322 177.431277 -21.100666 -3.333256 -1.362952 12.500766 3.141087 -0.127622 0.971532 0.251978 -0.225619 1.677882 0.438183 -1.256786 11.339715 2.846160 -2.633246 21.234816 -3.544386 -2.006210 -3.049314 -3.212239 1.529788 5.295813 -4.720249 4.674304 -2.948372 -4.572019 -85.558538 -51.065301 123.114800 -24.576302 -16.553908 -35.170935 0.008753 7.626132 -0.138348 8.381916 3.287502 -2.962399 90.106706 -54.214067 -137.699096 25.580788 -2.272036 41.840308 7.619949 -60.953464 0.766397 -109.179438 79.521193 -103.227994 4.243706 -13.370022 -15.183210 0.001278 0.008971 0.000581 -21.014771 -60.444305 14.878807 67.439417 80.624155 62.990594 -6.477989 -5.390865 -1.570890 -0.001020 -0.000142 -0.000463
90.089912 126.575310 120.446351 177.436838 -21.094775 -3.327779 -1.373831 12.503832 3.135348 -0.127184 0.971958 0.253898 -0.226599 1.676193 0.436364 -1.270039 11.341688 2.850505 -2.619478 21.227349 -3.556563 -1.993338 -3.051567 -3.223204 1.547236 5.289854 -4.721409 4.678287 -2.989653 -4.560725 -85.551374 -51.046398 123.087973 -24.568501 -16.539792 -35.191555 0.014838 7.614518 -0.150472 8.355843 3.263642 -2.961396 90.165631 -54.216251 -137.761549 25.601386 -2.282816 41.898281 7.629973 -60.957792 0.749083 -109.313202 79.543199 -103.358753 4.218509 -13.387349 -15.182707 0.000323 0.012089 0.000147 -21.013206 -60.452457 14.871849 67.437142 80.625719 62.987751 -6.503052 -5.392278 -1.568624 -0.003831 -0.001391 -0.001739
90.090438 126.574676 120.445187 177.436970 -21.083777 -3.323934 -1.376398 12.501244 3.133181 -0.132357 0.975338 0.255072 -0.221922 1.667851 0.434395 -1.269555 11.341265 2.852828 -2.618246 21.225514 -3.561764 -1.979437 -3.055660 -3.231718 1.550286 5.293369 -4.715154 4.690163 -3.063111 -4.525820 -85.515030 -51.052226 123.011818 -24.580901 -16.599468 -35.232529 -0.004836 7.603997 -0.152639 8.335913 3.245546 -2.960976 90.191721 -54.217533 -137.765335 25.593251 -2.292552 41.898524 7.653731 -60.967024 0.731385 -109.414075 79.556184 -103.450190 4.204534 -13.451773 -15.193303 0.000649 0.006651 0.000294 -21.011496 -60.464670 14.870300 67.432779 80.624638 62.984860 -6.498979 -5.391161 -1.569827 -0.003608 -0.002032 -0.001638
